<?xml version="1.0" encoding="UTF-8"?>
<svg version="1.1" xmlns="http://www.w3.org/2000/svg" width="100" height="100">
<path d="M0 0 C0 0.66 0 1.32 0 2 C0.53882813 2.07734375 1.07765625 2.1546875 1.6328125 2.234375 C4.90976292 3.29424675 7.149434 5.1555447 9.875 7.25 C10.40512695 7.65677979 10.93525391 8.06355957 11.48144531 8.48266602 C12.99335039 9.64772501 14.49691422 10.82358486 16 12 C16.69867188 12.54011719 17.39734375 13.08023438 18.1171875 13.63671875 C19.45645831 14.7036498 20.73776733 15.84295338 22 17 C22 17.66 22 18.32 22 19 C22.54140625 19.2165625 23.0828125 19.433125 23.640625 19.65625 C26.81645344 21.46499997 29.20728081 23.91723799 31.75 26.5 C32.25660156 26.99886719 32.76320313 27.49773437 33.28515625 28.01171875 C37 31.74658861 37 31.74658861 37 34 C37.66 34 38.32 34 39 34 C39.94213361 35.32596583 40.86981406 36.66372041 41.73828125 38.0390625 C43.21257577 40.33038091 44.79102828 42.53313892 46.375 44.75 C54.17111956 55.89445296 59.8466217 67.25059022 64.1875 80.125 C64.43757813 80.86492187 64.68765625 81.60484375 64.9453125 82.3671875 C66.6362076 87.52213256 67.97773682 92.67212501 69 98 C69.27638306 99.43303467 69.27638306 99.43303467 69.55834961 100.89501953 C70.95399519 108.91766274 71.31092841 116.81216951 71.26074219 124.93847656 C71.25000862 126.99834605 71.26071638 129.05734393 71.2734375 131.1171875 C71.28956551 143.81808751 69.46463991 155.58550276 65.875 167.75 C65.57440674 168.77770508 65.27381348 169.80541016 64.96411133 170.86425781 C62.17572673 180.04498373 58.42046913 188.50456967 54 197 C53.33163644 198.33248354 52.66396898 199.66532123 52 201 C51.34 201 50.68 201 50 201 C49.64421875 202.02673828 49.64421875 202.02673828 49.28125 203.07421875 C47.73491106 206.60534028 45.69619934 209.66554983 43.5 212.8125 C43.09652344 213.40998047 42.69304687 214.00746094 42.27734375 214.62304688 C41.23960218 216.12143611 40.12524203 217.56615614 39 219 C38.34 219 37.68 219 37 219 C36.67515625 219.81210937 36.67515625 219.81210937 36.34375 220.640625 C34.53500003 223.81645344 32.08276201 226.20728081 29.5 228.75 C29.00113281 229.25660156 28.50226563 229.76320313 27.98828125 230.28515625 C24.25341139 234 24.25341139 234 22 234 C21.34 235.32 20.68 236.64 20 238 C19.34 238 18.68 238 18 238 C18 238.66 18 239.32 18 240 C16.05045387 241.50660443 14.11032021 242.88873223 12.0625 244.25 C11.46421387 244.65331543 10.86592773 245.05663086 10.24951172 245.47216797 C9.04669646 246.28234603 7.84228553 247.09016053 6.63623047 247.89550781 C5.29518127 248.80074604 3.9745356 249.73614306 2.66015625 250.6796875 C-13.60551528 262.23112409 -33.55807961 267.85398494 -53 271 C-53.74233887 271.17200928 -54.48467773 271.34401855 -55.24951172 271.52124023 C-60.77139217 272.48239837 -66.43180089 272.22586455 -72.0246582 272.24023438 C-74.26748683 272.24980786 -76.5093444 272.28079885 -78.75195312 272.3125 C-88.83994029 272.38688359 -98.16921043 271.22310746 -108 269 C-109.39738403 268.69376709 -109.39738403 268.69376709 -110.82299805 268.38134766 C-121.11702433 266.02966401 -130.60870543 262.91139324 -140 258 C-140.87140625 257.57332031 -141.7428125 257.14664062 -142.640625 256.70703125 C-154.00578491 250.90535531 -167.48585851 242.63973985 -176 233 C-176 232.34 -176 231.68 -176 231 C-176.928125 230.62875 -176.928125 230.62875 -177.875 230.25 C-180.35068687 228.79371361 -180.95125002 227.62187494 -182 225 C-182.66 225 -183.32 225 -184 225 C-187.91327696 221.28054101 -191.51460715 217.28139679 -193 212 C-193.66 212 -194.32 212 -195 212 C-196.66503193 209.65617078 -198.19236212 207.32495503 -199.6875 204.875 C-200.13375732 204.14724365 -200.58001465 203.4194873 -201.03979492 202.66967773 C-207.9036261 191.3335641 -213.19583864 180.10357885 -216.43261719 167.23193359 C-216.80313889 165.77439944 -217.19110446 164.32115831 -217.59863281 162.87353516 C-220.96267634 150.83510443 -221.3716899 138.97901353 -221.375 126.5625 C-221.37690338 125.79086517 -221.37880676 125.01923035 -221.38076782 124.22421265 C-221.37703781 110.86243474 -219.99493719 98.30337804 -216.1875 85.4375 C-215.78785034 84.07492065 -215.78785034 84.07492065 -215.38012695 82.68481445 C-210.94319638 67.86104135 -204.17825995 53.53521338 -195 41 C-194.34 41 -193.68 41 -193 41 C-192.34 39.35 -191.68 37.7 -191 36 C-190.34 36 -189.68 36 -189 36 C-188.731875 35.4225 -188.46375 34.845 -188.1875 34.25 C-186.97070811 31.94449957 -185.69666121 29.97943808 -184 28 C-183.34 28 -182.68 28 -182 28 C-181.5968457 27.1032959 -181.5968457 27.1032959 -181.18554688 26.18847656 C-179.99459452 23.99002167 -178.8561326 22.67053043 -177.03125 20.984375 C-176.46019531 20.45585937 -175.88914063 19.92734375 -175.30078125 19.3828125 C-174.70652344 18.84398437 -174.11226562 18.30515625 -173.5 17.75 C-172.90574219 17.19570312 -172.31148437 16.64140625 -171.69921875 16.0703125 C-167.25796644 12 -167.25796644 12 -165 12 C-165 11.34 -165 10.68 -165 10 C-162.875 8.44921875 -162.875 8.44921875 -160 6.6875 C-158.98679688 6.06230469 -157.97359375 5.43710938 -156.9296875 4.79296875 C-155.96289062 4.20128906 -154.99609375 3.60960938 -154 3 C-152.70793641 2.16728221 -151.41621858 1.33402745 -150.125 0.5 C-148.75540654 -0.34218953 -147.37977591 -1.17459834 -146 -2 C-145.0925 -2.54527344 -144.185 -3.09054688 -143.25 -3.65234375 C-98.37698107 -29.28605581 -44.19408284 -22.68542418 0 0 Z M-110 32 C-111.58197008 32.58702034 -113.165179 33.1707206 -114.75 33.75 C-123.80477414 37.37190965 -131.4349984 43.12729576 -138.90625 49.30078125 C-141 51 -141 51 -144 53 C-144 53.66 -144 54.32 -144 55 C-144.66 55 -145.32 55 -146 55 C-147.81067374 56.71331989 -147.81067374 56.71331989 -149.625 58.875 C-150.25664062 59.59429687 -150.88828125 60.31359375 -151.5390625 61.0546875 C-153.20017123 62.86106933 -153.20017123 62.86106933 -153 65 C-153.66 65 -154.32 65 -155 65 C-156.51930065 67.05409448 -157.89767114 69.08885129 -159.25 71.25 C-159.65114014 71.88824707 -160.05228027 72.52649414 -160.46557617 73.18408203 C-175.05274414 96.70950867 -178.98861143 124.51952402 -172.90625 151.63671875 C-168.99161713 166.16473127 -162.00445129 179.69150618 -152 191 C-151.34 191 -150.68 191 -150 191 C-149.58814453 191.89525391 -149.58814453 191.89525391 -149.16796875 192.80859375 C-141.18916905 207.77885004 -118.26458884 218.5623042 -103.0234375 223.22265625 C-77.88311695 229.68638208 -49.03724632 227.44592316 -26.4375 214.4375 C-12.36479393 206.30682534 -12.36479393 206.30682534 -3 194 C-2.01 193.67 -1.02 193.34 0 193 C2.40995366 190.36458982 2.40995366 190.36458982 3 187 C3.66 187 4.32 187 5 187 C15.37979189 175.32974749 21.04344663 160.06672961 24 145 C24.19207031 144.09121094 24.38414062 143.18242187 24.58203125 142.24609375 C28.01617549 115.57530999 22.6814227 89.90205016 7 68 C3.91425789 64.10112314 0.50798599 60.51960183 -3 57 C-4.31291016 55.65228516 -4.31291016 55.65228516 -5.65234375 54.27734375 C-7.74518944 52.24717896 -9.32986842 51.08783138 -12 50 C-12 49.34 -12 48.68 -12 48 C-19.29541456 41.64869791 -28.38406359 37.27598443 -37 33 C-38.28003906 32.36191406 -38.28003906 32.36191406 -39.5859375 31.7109375 C-60.14651175 22.51832581 -89.59952863 22.77064456 -110 32 Z " fill="#FB7A6A" transform="translate(325,113)"/>
<path d="M0 0 C1.34780093 2.69560185 0.67336458 3.742617 -0.25 6.5625 C-0.50265625 7.36816406 -0.7553125 8.17382812 -1.015625 9.00390625 C-1.34046875 9.66261719 -1.6653125 10.32132813 -2 11 C-2.99 11.33 -3.98 11.66 -5 12 C-5 13.65 -5 15.3 -5 17 C-5.99 17 -6.98 17 -8 17 C-8.33 19.97 -8.66 22.94 -9 26 C-9.66 26 -10.32 26 -11 26 C-10.979375 26.969375 -10.95875 27.93875 -10.9375 28.9375 C-11 32 -11 32 -12 33 C-12.23192865 34.51469448 -12.41215238 36.03754562 -12.5625 37.5625 C-12.64628906 38.38878906 -12.73007813 39.21507812 -12.81640625 40.06640625 C-12.87699219 40.70449219 -12.93757813 41.34257812 -13 42 C-13.66 42 -14.32 42 -15 42 C-15 45.3 -15 48.6 -15 52 C-15.66 52 -16.32 52 -17 52 C-17.14704105 70.70135976 -16.76786112 89.31606019 -16 108 C-15.34 108 -14.68 108 -14 108 C-13.80083984 109.04800781 -13.80083984 109.04800781 -13.59765625 110.1171875 C-13.42105469 111.02726562 -13.24445313 111.93734375 -13.0625 112.875 C-12.88847656 113.77992188 -12.71445313 114.68484375 -12.53515625 115.6171875 C-12.10036299 117.99956317 -12.10036299 117.99956317 -11 120 C-10.95977609 122.3329866 -10.95679753 124.66706666 -11 127 C-13.15274469 124.84725531 -13.46706652 123.93204175 -14.21875 121.0703125 C-14.42886719 120.27367187 -14.63898438 119.47703125 -14.85546875 118.65625 C-15.06816406 117.8209375 -15.28085938 116.985625 -15.5 116.125 C-15.71269531 115.32835937 -15.92539063 114.53171875 -16.14453125 113.7109375 C-19.21623961 101.87638015 -20.32639374 90.60760419 -20.26074219 78.42797852 C-20.25003207 76.06956182 -20.26069075 73.71190919 -20.2734375 71.35351562 C-20.28722255 58.60768729 -18.81475715 46.697746 -15.1875 34.4375 C-14.92251709 33.53201416 -14.65753418 32.62652832 -14.38452148 31.69360352 C-10.95590188 20.21929367 -6.27912955 10.20584745 0 0 Z " fill="#F1A59B" transform="translate(124,164)"/>
<path d="M0 0 C0 0.33 0 0.66 0 1 C-4.61415928 1.45016188 -6.96341983 0.56019509 -10.83984375 -1.859375 C-14.93492507 -4.02169642 -19.44377684 -5.12420619 -23.88841248 -6.36517334 C-25.51386383 -6.85384825 -27.1229185 -7.39730061 -28.72303772 -7.96343994 C-37.02030478 -10.79424988 -44.44581419 -11.60060806 -53.17578125 -11.609375 C-54.46695358 -11.62591125 -55.75812592 -11.64244751 -57.08842468 -11.65948486 C-60.47322606 -11.70262189 -63.85777115 -11.72303576 -67.24279785 -11.73822021 C-70.71605258 -11.75798837 -74.18903804 -11.79993384 -77.66210938 -11.83984375 C-84.44130337 -11.91456166 -91.22048637 -11.96520344 -98 -12 C-98 -12.33 -98 -12.66 -98 -13 C-64.21999714 -18.36522715 -30.80431951 -16.2578353 0 0 Z " fill="#F3A49A" transform="translate(317,109)"/>
<path d="M0 0 C3.36997039 0.71364079 6.29870661 1.96957012 9.4375 3.375 C31.34165235 12.62876888 60.20435134 13.41077472 82.37890625 4.70703125 C85.32460338 3.91243933 87.09466039 4.17515675 90 5 C86.86372358 7.09085095 84.15594042 8.06068367 80.59130859 9.16308594 C79.04595105 9.66218954 77.51019873 10.19619591 76.00268555 10.80004883 C67.99605016 13.75900269 59.85991097 13.38414678 51.44970703 13.28125 C48.87387555 13.24998635 46.29865919 13.24025517 43.72265625 13.234375 C42.06249264 13.22520603 40.40233516 13.2148306 38.7421875 13.203125 C37.98364471 13.19887512 37.22510193 13.19462524 36.443573 13.19024658 C31.55724182 13.12575261 26.83963885 12.68287284 22 12 C21.67 11.01 21.34 10.02 21 9 C20.40832031 8.95101563 19.81664062 8.90203125 19.20703125 8.8515625 C14.80895528 8.43543133 11.03071103 7.95034405 7 6 C7 5.34 7 4.68 7 4 C5.35 4 3.7 4 2 4 C1.34 2.68 0.68 1.36 0 0 Z " fill="#F2AAA0" transform="translate(202,328)"/>
<path d="M0 0 C2 1 2 1 2.83789062 2.8984375 C3.10794922 3.71570313 3.37800781 4.53296875 3.65625 5.375 C3.95660156 6.27863281 4.25695312 7.18226563 4.56640625 8.11328125 C4.87449219 9.06589844 5.18257813 10.01851562 5.5 11 C5.80808594 11.92167969 6.11617188 12.84335938 6.43359375 13.79296875 C8.30169867 19.47745969 9.89547913 25.11872327 11 31 C11.18336914 31.95261719 11.36673828 32.90523437 11.55566406 33.88671875 C12.9548781 41.91184053 13.31094641 49.80925474 13.26074219 57.93847656 C13.25000862 59.99834605 13.26071638 62.05734393 13.2734375 64.1171875 C13.28290363 72.46431831 13.04951872 80.8660728 11 89 C10.01 89.99 10.01 89.99 9 91 C9.33 73.18 9.66 55.36 10 37 C9.34 37 8.68 37 8 37 C7.94392578 35.58847656 7.94392578 35.58847656 7.88671875 34.1484375 C7.82097656 32.90320313 7.75523437 31.65796875 7.6875 30.375 C7.60048828 28.53035156 7.60048828 28.53035156 7.51171875 26.6484375 C6.97643048 22.83195469 5.81095394 20.36590916 4 17 C3.6503582 14.66905466 3.31445513 12.33595238 3 10 C2.34 9.34 1.68 8.68 1 8 C0.43479997 5.34462628 0.26211802 2.70855287 0 0 Z " fill="#F2A79E" transform="translate(383,180)"/>
<path d="M0 0 C0.495 1.98 0.495 1.98 1 4 C0.01 4.66 -0.98 5.32 -2 6 C-3.01691264 7.99145391 -4.01642648 9.99187074 -5 12 C-6.5625 13.875 -6.5625 13.875 -8 15 C-8.66 15 -9.32 15 -10 15 C-10.0825 15.61875 -10.165 16.2375 -10.25 16.875 C-11.23825442 19.67505419 -12.40359985 19.74113932 -15 21 C-16.3762794 22.91764174 -16.3762794 22.91764174 -17 25 C-16.67 25.66 -16.34 26.32 -16 27 C-19.96 27.495 -19.96 27.495 -24 28 C-24 28.66 -24 29.32 -24 30 C-27.18059403 32.18097876 -30.43802969 33.57521188 -34 35 C-36.70346154 36.50890877 -38.80889389 37.80889389 -41 40 C-41.99 39.34 -42.98 38.68 -44 38 C-42.40285156 37.12601562 -42.40285156 37.12601562 -40.7734375 36.234375 C-27.86225462 29.00716318 -15.74373405 20.9161495 -7.234375 8.546875 C-6.82703125 8.03640625 -6.4196875 7.5259375 -6 7 C-5.34 7 -4.68 7 -4 7 C-3.71125 6.401875 -3.4225 5.80375 -3.125 5.1875 C-2 3 -2 3 0 0 Z " fill="#F2B0A6" transform="translate(334,293)"/>
<path d="M0 0 C0.495 0.99 0.495 0.99 1 2 C2.98 1.67 4.96 1.34 7 1 C-3.9296651 12.5785506 -23.33656648 23.52227962 -39 27 C-41.296875 26.58984375 -41.296875 26.58984375 -43 26 C-42.01 26 -41.02 26 -40 26 C-40 25.34 -40 24.68 -40 24 C-36.41278829 22.43920222 -33.041614 21.52509152 -29.1875 20.875 C-28.21167969 20.70742188 -27.23585938 20.53984375 -26.23046875 20.3671875 C-25.49441406 20.24601562 -24.75835937 20.12484375 -24 20 C-24 19.34 -24 18.68 -24 18 C-22.68 17.67 -21.36 17.34 -20 17 C-20 16.34 -20 15.68 -20 15 C-18.02 15 -16.04 15 -14 15 C-14 14.01 -14 13.02 -14 12 C-12.68 12 -11.36 12 -10 12 C-10.495 10.02 -10.495 10.02 -11 8 C-10.05125 8.020625 -9.1025 8.04125 -8.125 8.0625 C-5.09333717 8.22551826 -5.09333717 8.22551826 -3 7 C-3.495 4.525 -3.495 4.525 -4 2 C-2.68 1.34 -1.36 0.68 0 0 Z " fill="#F69F94" transform="translate(334,352)"/>
<path d="M0 0 C1.31150287 3.66346468 0.65830107 6.12010766 -0.375 9.8125 C-2.73954816 18.35360152 -3.15657067 26.37402168 -3.125 35.1875 C-3.12886719 36.24775391 -3.13273438 37.30800781 -3.13671875 38.40039062 C-3.12788778 45.64619989 -2.71072652 52.78993039 -2 60 C-2.99 59.67 -3.98 59.34 -5 59 C-6.52945896 48.7064984 -6.15204915 38.38048514 -6 28 C-5.99274902 27.19771973 -5.98549805 26.39543945 -5.97802734 25.56884766 C-5.85504723 16.15357386 -4.34111546 8.45796665 0 0 Z " fill="#F8CAC1" transform="translate(154,204)"/>
<path d="M0 0 C0.99 0 1.98 0 3 0 C2.43190171 5.7985205 1.30281249 10.98701951 -0.5625 16.5 C-0.81918457 17.26812012 -1.07586914 18.03624023 -1.34033203 18.82763672 C-4.1526938 26.92624307 -7.9522768 34.45931769 -12 42 C-12.66 42 -13.32 42 -14 42 C-14.125 38.625 -14.125 38.625 -14 35 C-13.34 34.34 -12.68 33.68 -12 33 C-11.01 33 -10.02 33 -9 33 C-9 30.69 -9 28.38 -9 26 C-8.01 25.67 -7.02 25.34 -6 25 C-5.34 21.7 -4.68 18.4 -4 15 C-3.34 15 -2.68 15 -2 15 C-1.2717552 10.00632136 -0.61512818 5.00890086 0 0 Z " fill="#F4AEA6" transform="translate(389,272)"/>
<path d="M0 0 C1.33804688 0.04060547 1.33804688 0.04060547 2.703125 0.08203125 C3.37859375 0.11683594 4.0540625 0.15164062 4.75 0.1875 C3.3152716 3.0569568 1.40807352 3.37810564 -1.5 4.6875 C-7.22125781 7.45231837 -11.97446918 10.78653244 -16.88378906 14.75976562 C-19.56270234 16.9251223 -22.07796746 18.81498592 -25.25 20.1875 C-25.58 18.8675 -25.91 17.5475 -26.25 16.1875 C-25.528125 16.125625 -24.80625 16.06375 -24.0625 16 C-20.41149678 14.94526574 -18.82909045 12.90600074 -16.25 10.1875 C-15.59 10.1875 -14.93 10.1875 -14.25 10.1875 C-14.25 9.1975 -14.25 8.2075 -14.25 7.1875 C-13.26 7.1875 -12.27 7.1875 -11.25 7.1875 C-11.0025 6.589375 -10.755 5.99125 -10.5 5.375 C-7.92604593 0.87058039 -5.05249227 -0.19944048 0 0 Z " fill="#F39488" transform="translate(206.25,145.8125)"/>
<path d="M0 0 C0.99 0 1.98 0 3 0 C3 0.66 3 1.32 3 2 C2.34 2 1.68 2 1 2 C0.7834375 2.54140625 0.566875 3.0828125 0.34375 3.640625 C-1.46499997 6.81645344 -3.91723799 9.20728081 -6.5 11.75 C-6.99886719 12.25660156 -7.49773437 12.76320313 -8.01171875 13.28515625 C-11.74658861 17 -11.74658861 17 -14 17 C-14.66 18.32 -15.32 19.64 -16 21 C-16.66 21 -17.32 21 -18 21 C-18 21.66 -18 22.32 -18 23 C-18.66 23 -19.32 23 -20 23 C-20.33 21.68 -20.66 20.36 -21 19 C-19.35 18.34 -17.7 17.68 -16 17 C-16 16.34 -16 15.68 -16 15 C-15.34 15 -14.68 15 -14 15 C-13.67 14.01 -13.34 13.02 -13 12 C-12.34 12 -11.68 12 -11 12 C-10.773125 11.443125 -10.54625 10.88625 -10.3125 10.3125 C-8.61382022 7.31958801 -6.57927313 5.26472763 -4 3 C-3.01 3 -2.02 3 -1 3 C-0.67 2.01 -0.34 1.02 0 0 Z " fill="#F4A79D" transform="translate(361,330)"/>
<path d="M0 0 C16.38506002 0.80582262 32.57891643 6.38887256 47 14 C47 14.33 47 14.66 47 15 C42.37088855 15.45162063 40.02459729 14.53922209 36.12890625 12.1328125 C31.41407168 9.62400144 26.11649796 8.45193221 21 7 C19.16264705 6.47174831 17.3254161 5.94307219 15.48828125 5.4140625 C10.32860019 3.93179524 5.16539444 2.462222 0 1 C0 0.67 0 0.34 0 0 Z " fill="#F2B0A9" transform="translate(270,95)"/>
<path d="M0 0 C4.45259536 3.28347814 8.8238071 6.64494393 13.125 10.125 C16.64560208 12.96104057 20.17909766 15.58679852 24 18 C22 19 22 19 19.72265625 18.36328125 C18.84480469 18.01652344 17.96695313 17.66976563 17.0625 17.3125 C16.18722656 16.97863281 15.31195313 16.64476562 14.41015625 16.30078125 C11.74505271 14.86240284 10.73457287 13.42938757 9 11 C7.02111039 10.27306096 5.02045442 9.60183749 3 9 C2.34 8.34 1.68 7.68 1 7 C1 6.34 1 5.68 1 5 C0.68197057 3.33034549 0.35015049 1.66321482 0 0 Z " fill="#F69F95" transform="translate(178,309)"/>
<path d="M0 0 C3.95147137 3.42460852 5.71216603 6.68501421 6.17047119 11.96331787 C6.2304599 14.20503201 6.22504979 16.43737957 6.1953125 18.6796875 C6.1924826 19.49245148 6.18965271 20.30521545 6.18673706 21.14260864 C6.17560619 23.72022675 6.15051515 26.29748819 6.125 28.875 C6.11496101 30.63020329 6.10583677 32.38541206 6.09765625 34.140625 C6.07569015 38.42721926 6.04120978 42.7135493 6 47 C5.67 47 5.34 47 5 47 C4.98541748 46.36199463 4.97083496 45.72398926 4.95581055 45.06665039 C4.61726558 31.74376941 3.71129692 19.05548406 1 6 C0.65716067 4.00160757 0.32033957 2.00212229 0 0 Z " fill="#F7BEB5" transform="translate(345,205)"/>
<path d="M0 0 C-0.66 0 -1.32 0 -2 0 C-2.33 0.99 -2.66 1.98 -3 3 C-8.00319928 5.81724404 -13.22282927 7.60812323 -19 7 C-19 7.66 -19 8.32 -19 9 C-22.3 9.66 -25.6 10.32 -29 11 C-23.48221537 5.48221537 -7.9300127 -3.19948532 0 0 Z " fill="#F5BBB3" transform="translate(210,100)"/>
<path d="M0 0 C4.99213851 0.46801299 9.12963993 2.91715737 13 6 C13 6.66 13 7.32 13 8 C13.99 7.87625 13.99 7.87625 15 7.75 C19.23538722 8.10294893 22.31511503 9.99272668 26 12 C27.33101049 12.67129225 28.66370379 13.3392923 30 14 C29.67 14.66 29.34 15.32 29 16 C18.74866122 14.49980408 7.91711453 7.45773858 0 1 C0 0.67 0 0.34 0 0 Z " fill="#F3B3AB" transform="translate(167,359)"/>
<path d="M0 0 C1.84078125 -0.02416992 1.84078125 -0.02416992 3.71875 -0.04882812 C4.89695313 -0.04947266 6.07515625 -0.05011719 7.2890625 -0.05078125 C8.3610791 -0.05376221 9.4330957 -0.05674316 10.53759766 -0.05981445 C13.69000831 0.35383434 15.05445425 1.19588524 17.375 3.3125 C16.61469482 3.30726318 15.85438965 3.30202637 15.07104492 3.29663086 C11.5682053 3.27562074 8.065379 3.26276426 4.5625 3.25 C3.36689453 3.24162109 2.17128906 3.23324219 0.93945312 3.22460938 C-6.31007559 3.20485589 -13.42038651 3.49456935 -20.625 4.3125 C-19.625 2.3125 -19.625 2.3125 -16.95947266 1.20629883 C-11.35374318 -0.29630592 -5.77110112 -0.01525132 0 0 Z " fill="#EFA194" transform="translate(248.625,136.6875)"/>
<path d="M0 0 C1.7074998 1.28062485 3.37373596 2.61767557 5 4 C5 4.66 5 5.32 5 6 C5.66 6 6.32 6 7 6 C7.9534764 7.36210914 8.89642641 8.73295111 9.78125 10.140625 C11.63635933 12.9708559 13.74295282 15.60238529 15.828125 18.265625 C17 20 17 20 17 22 C16.01 22.33 15.02 22.66 14 23 C13.4225 21.906875 12.845 20.81375 12.25 19.6875 C10.92197176 17.331775 10.18348129 16.1278809 7.9375 14.5625 C5.29802799 12.43389354 4.78001646 10.1232838 3.80859375 6.9375 C2.89319438 4.74407929 1.68367822 3.64170286 0 2 C0 1.34 0 0.68 0 0 Z " fill="#F5A79F" transform="translate(357,141)"/>
<path d="M0 0 C2.44653549 2.44653549 2.2562983 3.11537652 2.265625 6.47265625 C2.26820313 7.37306641 2.27078125 8.27347656 2.2734375 9.20117188 C2.26570313 10.14541016 2.25796875 11.08964844 2.25 12.0625 C2.25773437 12.97966797 2.26546875 13.89683594 2.2734375 14.84179688 C2.23112118 29.76887882 2.23112118 29.76887882 -2 34 C-2 32.02 -2 30.04 -2 28 C-1.34 28 -0.68 28 0 28 C0 18.76 0 9.52 0 0 Z " fill="#EE7F73" transform="translate(351,224)"/>
<path d="M0 0 C-24.18574834 12.50254494 -24.18574834 12.50254494 -29.296875 11.58984375 C-29.85890625 11.39519531 -30.4209375 11.20054687 -31 11 C-30.01 11 -29.02 11 -28 11 C-28 10.34 -28 9.68 -28 9 C-24.41278829 7.43920222 -21.041614 6.52509152 -17.1875 5.875 C-16.21167969 5.70742188 -15.23585938 5.53984375 -14.23046875 5.3671875 C-13.12638672 5.18542969 -13.12638672 5.18542969 -12 5 C-12 4.34 -12 3.68 -12 3 C-10.68 2.67 -9.36 2.34 -8 2 C-8 1.34 -8 0.68 -8 0 C-2.25 -1.125 -2.25 -1.125 0 0 Z " fill="#F7C6BF" transform="translate(322,367)"/>
<path d="M0 0 C3.47293199 0.73768722 6.55883462 2.02994514 9.8125 3.4375 C14.17548463 5.28522666 18.40722398 6.851806 23 8 C23 8.33 23 8.66 23 9 C16.79029227 9.33266291 12.71735105 8.45029331 7 6 C7 5.34 7 4.68 7 4 C5.35 4 3.7 4 2 4 C1.34 2.68 0.68 1.36 0 0 Z " fill="#F3B3AC" transform="translate(202,328)"/>
<path d="M0 0 C0.33 0 0.66 0 1 0 C1 6.6 1 13.2 1 20 C1.66 20 2.32 20 3 20 C3.33 23.96 3.66 27.92 4 32 C3.01 31.67 2.02 31.34 1 31 C-0.02250405 24.30139078 -0.11756273 17.7684802 -0.0625 11 C-0.05573242 9.40865234 -0.05573242 9.40865234 -0.04882812 7.78515625 C-0.03713843 5.19004402 -0.02075276 2.59505291 0 0 Z " fill="#E59388" transform="translate(148,232)"/>
<path d="M0 0 C1.34780093 2.69560185 0.67336458 3.742617 -0.25 6.5625 C-0.50265625 7.36816406 -0.7553125 8.17382812 -1.015625 9.00390625 C-1.34046875 9.66261719 -1.6653125 10.32132813 -2 11 C-2.99 11.33 -3.98 11.66 -5 12 C-5 13.65 -5 15.3 -5 17 C-5.99 17 -6.98 17 -8 17 C-8.12375 17.78375 -8.2475 18.5675 -8.375 19.375 C-9 22 -9 22 -11 24 C-10.3768443 19.11062454 -8.28672194 15.19747025 -6.0625 10.875 C-5.70220703 10.15957031 -5.34191406 9.44414062 -4.97070312 8.70703125 C-3.43066268 5.67232909 -1.89255759 2.83883639 0 0 Z " fill="#F6BBB1" transform="translate(124,164)"/>
<path d="M0 0 C0.66 0.33 1.32 0.66 2 1 C0.55049545 4.7910119 -1.15172566 8.3874638 -3 12 C-3.66 12 -4.32 12 -5 12 C-5 12.66 -5 13.32 -5 14 C-6.32 14.33 -7.64 14.66 -9 15 C-7.66749209 11.4124787 -6.169283 8.1635377 -4 5 C-3.34 5 -2.68 5 -2 5 C-1.34 3.35 -0.68 1.7 0 0 Z " fill="#F4B7B0" transform="translate(134,149)"/>
<path d="M0 0 C3.27786262 1.63893131 3.53673944 4.91772248 4.6640625 8.25976562 C4.98117187 9.22591797 5.29828125 10.19207031 5.625 11.1875 C5.94984375 12.13431641 6.2746875 13.08113281 6.609375 14.05664062 C8.19224336 18.82187248 9.4620966 22.90838001 9 28 C8.67 28 8.34 28 8 28 C6.10697772 22.66167718 4.55951592 17.42138598 3.52734375 11.84765625 C3.09706547 9.77314079 3.09706547 9.77314079 1 8 C0.43479997 5.34462628 0.26211802 2.70855287 0 0 Z " fill="#F6B9AF" transform="translate(383,180)"/>
<path d="M0 0 C0.33 0 0.66 0 1 0 C1.33 2.64 1.66 5.28 2 8 C2.66 8 3.32 8 4 8 C4.13277344 8.69867188 4.26554687 9.39734375 4.40234375 10.1171875 C4.57894531 11.02726562 4.75554687 11.93734375 4.9375 12.875 C5.11152344 13.77992188 5.28554687 14.68484375 5.46484375 15.6171875 C5.89963701 17.99956317 5.89963701 17.99956317 7 20 C7.04022391 22.3329866 7.04320247 24.66706666 7 27 C3.88020454 23.88020454 3.45437053 19.94824934 2.375 15.75 C2.14554687 14.90308594 1.91609375 14.05617188 1.6796875 13.18359375 C0.50472026 8.68654651 -0.29123052 4.69034418 0 0 Z " fill="#F5BBB4" transform="translate(106,264)"/>
<path d="M0 0 C0 3.54404336 -0.60989485 4.10267905 -2.875 6.6875 C-3.40867188 7.31011719 -3.94234375 7.93273437 -4.4921875 8.57421875 C-6 10 -6 10 -8 10 C-8.33 10.99 -8.66 11.98 -9 13 C-10.42192543 10.15614914 -9.77734645 7.90207726 -9.01171875 4.91015625 C-7.68782878 2.4106111 -6.49857856 1.96120489 -3.875 1 C-2.59199821 0.63473259 -1.30193253 0.29066401 0 0 Z " fill="#F39F92" transform="translate(178,168)"/>
<path d="M0 0 C2.475 0.495 2.475 0.495 5 1 C5 1.66 5 2.32 5 3 C5.57234375 3.10183594 6.1446875 3.20367187 6.734375 3.30859375 C9.40275646 4.12291016 11.05965688 5.34673122 13.25 7.0625 C13.95640625 7.61035156 14.6628125 8.15820312 15.390625 8.72265625 C15.92171875 9.14417969 16.4528125 9.56570312 17 10 C16.01 10.495 16.01 10.495 15 11 C12.375 10.0625 12.375 10.0625 10 9 C10 8.34 10 7.68 10 7 C8.68 7 7.36 7 6 7 C6 6.34 6 5.68 6 5 C5.01 5 4.02 5 3 5 C3 4.01 3 3.02 3 2 C2.01 2.33 1.02 2.66 0 3 C0 2.01 0 1.02 0 0 Z " fill="#F4B8B0" transform="translate(320,112)"/>
<path d="M0 0 C4.93054827 2.71683272 9.46284362 5.66657898 14 9 C12 10 12 10 9.6875 9.29296875 C8.800625 8.92816406 7.91375 8.56335938 7 8.1875 C6.113125 7.83042969 5.22625 7.47335937 4.3125 7.10546875 C2 6 2 6 0 4 C0 2.68 0 1.36 0 0 Z " fill="#F3B8AF" transform="translate(188,318)"/>
<path d="M0 0 C0.33 0 0.66 0 1 0 C1.05418326 2.08304538 1.09287551 4.16649768 1.125 6.25 C1.14820313 7.41015625 1.17140625 8.5703125 1.1953125 9.765625 C1.0103949 12.82786046 0.60823023 14.44202751 -1 17 C-1.66 17 -2.32 17 -3 17 C-3.33 18.32 -3.66 19.64 -4 21 C-5.2634025 17.20979251 -4.47611172 15.89140971 -3.125 12.1875 C-1.64920962 8.11617619 -0.60317335 4.29279754 0 0 Z " fill="#F5B2AB" transform="translate(348,258)"/>
<path d="M0 0 C2.4375 1.1875 2.4375 1.1875 5 3 C5.6875 5.625 5.6875 5.625 6 8 C6.66 8.33 7.32 8.66 8 9 C8 10.65 8 12.3 8 14 C8.99 14.33 9.98 14.66 11 15 C11 16.98 11 18.96 11 21 C8.26500231 19.63250116 8.20807914 18.28209292 7.1875 15.4375 C5.54189365 11.10924481 3.55318913 7.41553102 0.953125 3.59375 C0 2 0 2 0 0 Z " fill="#F6BFB7" transform="translate(334,184)"/>
<path d="M0 0 C3.3125 0.625 3.3125 0.625 7 2 C8.75 5 8.75 5 10 8 C10.99 8.66 11.98 9.32 13 10 C13.33 10.99 13.66 11.98 14 13 C14.66 13.66 15.32 14.32 16 15 C13 15 13 15 10.73828125 12.8828125 C9.93777344 11.97273437 9.13726562 11.06265625 8.3125 10.125 C7.50425781 9.22007812 6.69601562 8.31515625 5.86328125 7.3828125 C4 5 4 5 4 3 C2.68 2.34 1.36 1.68 0 1 C0 0.67 0 0.34 0 0 Z " fill="#F6C1B9" transform="translate(317,165)"/>
<path d="M0 0 C8.96452064 0.43098657 17.37352947 2.69889434 26 5 C17.37909078 7.46580591 8.26288112 3.49511157 0 1 C0 0.67 0 0.34 0 0 Z " fill="#F5BFB5" transform="translate(270,95)"/>
<path d="M0 0 C1.89506729 2.84260094 2.92179521 5.24092422 4.0625 8.4375 C4.57490234 9.85869141 4.57490234 9.85869141 5.09765625 11.30859375 C5.84280949 13.53115039 6.47652542 15.71721909 7 18 C6.01 18 5.02 18 4 18 C0.38247261 12.33778322 0.30959957 6.59767367 0 0 Z " fill="#F3B5AA" transform="translate(152,265)"/>
<path d="M0 0 C-4.62197306 2.21854707 -7.76824163 3.38281159 -13 3 C-13 3.66 -13 4.32 -13 5 C-16.3 5.66 -19.6 6.32 -23 7 C-18.62829564 2.62829564 -6.06033565 -3.03016782 0 0 Z " fill="#F37E72" transform="translate(204,104)"/>
<path d="M0 0 C0.4125 0.45375 0.825 0.9075 1.25 1.375 C2.8881966 3.10248645 2.8881966 3.10248645 5 3.75 C8.106202 5.69137625 8.66066926 8.68078903 10 12 C11.53951047 13.88029239 11.53951047 13.88029239 13 15 C12.01 15 11.02 15 10 15 C6 10.65714286 6 10.65714286 6 8 C5.34 8 4.68 8 4 8 C0 2.58823529 0 2.58823529 0 0 Z " fill="#F7C3B8" transform="translate(126,317)"/>
<path d="M0 0 C1.75390625 1.1796875 1.75390625 1.1796875 3.5625 2.875 C6.08137361 5.22310453 6.08137361 5.22310453 9 7 C8.67 8.32 8.34 9.64 8 11 C7.01 10.34 6.02 9.68 5 9 C5 8.34 5 7.68 5 7 C4.236875 6.7525 3.47375 6.505 2.6875 6.25 C-0.2364045 4.89004442 -1.30004356 3.68414174 -3 1 C-2.01 0.67 -1.02 0.34 0 0 Z " fill="#F2B6AB" transform="translate(308,154)"/>
<path d="M0 0 C2.15234375 0.3515625 2.15234375 0.3515625 4 1 C2.40012144 2.31772362 0.79494034 3.62901137 -0.8125 4.9375 C-1.70582031 5.66839844 -2.59914062 6.39929688 -3.51953125 7.15234375 C-6 9 -6 9 -9 10 C-9.33 8.68 -9.66 7.36 -10 6 C-9.278125 5.938125 -8.55625 5.87625 -7.8125 5.8125 C-4.75345096 5.17945479 -4.75345096 5.17945479 -2.4375 2.375 C-1.633125 1.59125 -0.82875 0.8075 0 0 Z " fill="#F4BAB0" transform="translate(190,156)"/>
<path d="M0 0 C0 3.62189223 -0.99315118 5.00562117 -2.875 8.0625 C-3.40867188 8.94035156 -3.94234375 9.81820312 -4.4921875 10.72265625 C-6 13 -6 13 -8 15 C-7.34 12.03 -6.68 9.06 -6 6 C-5.34 6 -4.68 6 -4 6 C-4 4.35 -4 2.7 -4 1 C-2.68 0.67 -1.36 0.34 0 0 Z " fill="#F6C0B7" transform="translate(167,181)"/>
<path d="M0 0 C0.33 0 0.66 0 1 0 C1 1.98 1 3.96 1 6 C0.34 6 -0.32 6 -1 6 C-1.99 8.64 -2.98 11.28 -4 14 C-4.99 14 -5.98 14 -7 14 C-5.23570801 9.02790438 -2.6060834 4.56561939 0 0 Z " fill="#F4B9B1" transform="translate(342,279)"/>
<path d="M0 0 C0.33 0 0.66 0 1 0 C1.08728882 3.24983 1.14048658 6.4993575 1.1875 9.75 C1.22520508 11.13058594 1.22520508 11.13058594 1.26367188 12.5390625 C1.27333984 13.42851562 1.28300781 14.31796875 1.29296875 15.234375 C1.3086792 16.05131836 1.32438965 16.86826172 1.34057617 17.70996094 C0.92379459 20.51240627 -0.16195148 21.88847021 -2 24 C-2 22.02 -2 20.04 -2 18 C-1.34 18 -0.68 18 0 18 C0 12.06 0 6.12 0 0 Z " fill="#ECA49A" transform="translate(351,234)"/>
<path d="M0 0 C1.051875 0.185625 2.10375 0.37125 3.1875 0.5625 C6.57119882 0.95079331 8.76425888 0.88247485 12 0 C12 1.98 12 3.96 12 6 C7.76570244 4.68938409 3.92592596 3.05643741 0 1 C0 0.67 0 0.34 0 0 Z " fill="#FAB5AA" transform="translate(288,146)"/>
<path d="M0 0 C0.90105469 0.01804687 1.80210937 0.03609375 2.73046875 0.0546875 C3.41753906 0.07789063 4.10460937 0.10109375 4.8125 0.125 C-0.41281563 3.60854375 -6.0006337 4.43434332 -12.1875 4.125 C-11.2903125 3.691875 -11.2903125 3.691875 -10.375 3.25 C-3.86057692 -0.10027473 -3.86057692 -0.10027473 0 0 Z " fill="#F7BEB7" transform="translate(286.1875,378.875)"/>
<path d="M0 0 C0.66 0.33 1.32 0.66 2 1 C0.40089132 2.00806851 -1.20448262 3.00620385 -2.8125 4 C-4.15248047 4.8353125 -4.15248047 4.8353125 -5.51953125 5.6875 C-8 7 -8 7 -11 7 C-11 6.34 -11 5.68 -11 5 C-9.68 5 -8.36 5 -7 5 C-7.33 3.68 -7.66 2.36 -8 1 C-7.05125 1.020625 -6.1025 1.04125 -5.125 1.0625 C-2.09333717 1.22551826 -2.09333717 1.22551826 0 0 Z " fill="#F3ABA2" transform="translate(331,359)"/>
<path d="M0 0 C8.35010941 1.99562363 8.35010941 1.99562363 11.0625 6.1875 C11.371875 7.115625 11.68125 8.04375 12 9 C7.09198451 7.51272258 3.59508707 4.55364515 0 1 C0 0.67 0 0.34 0 0 Z " fill="#F5B8AE" transform="translate(155,350)"/>
<path d="M0 0 C2.97 0 5.94 0 9 0 C9 0.33 9 0.66 9 1 C3.70987333 2.57578241 -1.60204011 3.84941444 -7 5 C-6.67 4.01 -6.34 3.02 -6 2 C-4.02 2 -2.04 2 0 2 C0 1.34 0 0.68 0 0 Z " fill="#F5BFB9" transform="translate(219,141)"/>
<path d="M0 0 C0.66 0.33 1.32 0.66 2 1 C-3.625 5.875 -3.625 5.875 -7 7 C-7.66 7.66 -8.32 8.32 -9 9 C-9.99 8.34 -10.98 7.68 -12 7 C-10.04754815 5.80285445 -8.08785003 4.61751926 -6.125 3.4375 C-5.03445313 2.77621094 -3.94390625 2.11492187 -2.8203125 1.43359375 C-1.88960938 0.96050781 -0.95890625 0.48742187 0 0 Z " fill="#FAC8C1" transform="translate(302,324)"/>
<path d="M0 0 C0.33 0.66 0.66 1.32 1 2 C-1.31 5.3 -3.62 8.6 -6 12 C-6 10 -6 8 -6 6 C-5.01 6 -4.02 6 -3 6 C-3 4.35 -3 2.7 -3 1 C-2.01 0.67 -1.02 0.34 0 0 Z " fill="#F6BDB4" transform="translate(374,314)"/>
<path d="M0 0 C3 3 3 3 3.29296875 5.26171875 C3.25816406 6.06222656 3.22335937 6.86273438 3.1875 7.6875 C3.16042969 8.49574219 3.13335937 9.30398437 3.10546875 10.13671875 C3.07066406 10.75160156 3.03585937 11.36648437 3 12 C2.67 11.01 2.34 10.02 2 9 C1.34 9 0.68 9 0 9 C0 6.03 0 3.06 0 0 Z " fill="#EFA499" transform="translate(391,208)"/>
<path d="M0 0 C4.90629228 1.36285897 6.45770646 3.70440058 9 8 C9.99 9.485 9.99 9.485 11 11 C8.37812506 9.95125002 7.20628639 9.35068687 5.75 6.875 C5.5025 6.25625 5.255 5.6375 5 5 C4.34 5 3.68 5 3 5 C1.375 2.5 1.375 2.5 0 0 Z " fill="#F6C2BA" transform="translate(138,333)"/>
<path d="M0 0 C0 3.66184524 -0.919642 5.02806 -3 8 C-5.1875 9.8125 -5.1875 9.8125 -7 11 C-7.66 10.67 -8.32 10.34 -9 10 C-7.71937515 8.2925002 -6.38232443 6.62626404 -5 5 C-4.34 5 -3.68 5 -3 5 C-2.690625 4.360625 -2.38125 3.72125 -2.0625 3.0625 C-1 1 -1 1 0 0 Z " fill="#F6C2B5" transform="translate(146,136)"/>
<path d="M0 0 C2.35953094 2.35953094 2.49141413 3.77895617 3 7 C3.99 7.33 4.98 7.66 6 8 C6 9.98 6 11.96 6 14 C3.3522659 12.67613295 3.0592562 11.36742791 1.875 8.6875 C1.52179688 7.90761719 1.16859375 7.12773437 0.8046875 6.32421875 C0 4 0 4 0 0 Z " fill="#F9CFC9" transform="translate(113,291)"/>
<path d="M0 0 C0.33 0 0.66 0 1 0 C1.33 3.96 1.66 7.92 2 12 C1.01 11.67 0.02 11.34 -1 11 C-1.14285714 3.57142857 -1.14285714 3.57142857 0 0 Z " fill="#F4B5AA" transform="translate(150,252)"/>
<path d="M0 0 C1.3805087 3.76668598 0.59568159 6.44789173 -0.4375 10.25 C-0.72496094 11.32765625 -1.01242188 12.4053125 -1.30859375 13.515625 C-1.53675781 14.33546875 -1.76492187 15.1553125 -2 16 C-2.33 16 -2.66 16 -3 16 C-3.32712342 9.86946489 -3.39366878 5.37330889 0 0 Z " fill="#F6BEB5" transform="translate(154,204)"/>
<path d="M0 0 C2.52328232 2.52328232 3.71399027 3.8344376 5 7 C5 7.99 5 8.98 5 10 C3.68 9.67 2.36 9.34 1 9 C0.67 6.03 0.34 3.06 0 0 Z " fill="#F4B6AC" transform="translate(378,170)"/>
<path d="M0 0 C0 0.66 0 1.32 0 2 C-0.66 2 -1.32 2 -2 2 C-2.20625 2.61875 -2.4125 3.2375 -2.625 3.875 C-4.54775888 6.84653645 -6.66594527 7.13024659 -10 8 C-8.71937515 6.2925002 -7.38232443 4.62626404 -6 3 C-5.34 3 -4.68 3 -4 3 C-4 2.34 -4 1.68 -4 1 C-2 0 -2 0 0 0 Z " fill="#F4BCB8" transform="translate(164,122)"/>
<path d="M0 0 C0.66 0.33 1.32 0.66 2 1 C0.35 1.66 -1.3 2.32 -3 3 C-3 4.32 -3 5.64 -3 7 C-4.98 7 -6.96 7 -9 7 C-3.51752022 1.21293801 -3.51752022 1.21293801 0 0 Z " fill="#F8BCB2" transform="translate(177,112)"/>
<path d="M0 0 C0 0.66 0 1.32 0 2 C-1.24420647 2.5345256 -2.49570936 3.05208611 -3.75 3.5625 C-4.44609375 3.85253906 -5.1421875 4.14257812 -5.859375 4.44140625 C-8.30012784 5.07831803 -9.6403655 4.80248831 -12 4 C-11.01 4 -10.02 4 -9 4 C-9 3.34 -9 2.68 -9 2 C-5.62902617 0.50178941 -3.79557881 0 0 0 Z " fill="#F3B2AC" transform="translate(303,374)"/>
<path d="M0 0 C2.64 0 5.28 0 8 0 C6.47058649 3.05882701 4.05780454 3.68951234 1 5 C0.34 4.67 -0.32 4.34 -1 4 C-0.67 2.68 -0.34 1.36 0 0 Z " fill="#F3B1A7" transform="translate(203,146)"/>
<path d="M0 0 C0 3 0 3 -1.3125 4.38671875 C-2.875 5.59114583 -4.4375 6.79557292 -6 8 C-5.8125 5.125 -5.8125 5.125 -5 2 C-2.4375 0.625 -2.4375 0.625 0 0 Z " fill="#F5C0B9" transform="translate(178,168)"/>
<path d="M0 0 C0.33 0.66 0.66 1.32 1 2 C0.01 3.485 0.01 3.485 -1 5 C-1.66 5 -2.32 5 -3 5 C-3 5.66 -3 6.32 -3 7 C-4.32 7.33 -5.64 7.66 -7 8 C-6.34 6.35 -5.68 4.7 -5 3 C-3.68 3 -2.36 3 -1 3 C-0.67 2.01 -0.34 1.02 0 0 Z " fill="#F4A295" transform="translate(132,156)"/>
<path d="M0 0 C0.99 0.33 1.98 0.66 3 1 C3.33 3.64 3.66 6.28 4 9 C1.27573689 6.64722731 0.1858237 4.37503669 -1 1 C-0.67 0.67 -0.34 0.34 0 0 Z " fill="#F4ACA4" transform="translate(122,308)"/>
<path d="M0 0 C0.66 0 1.32 0 2 0 C1.34 2.97 0.68 5.94 0 9 C-0.66 9 -1.32 9 -2 9 C-2.125 5.625 -2.125 5.625 -2 2 C-1.34 1.34 -0.68 0.68 0 0 Z " fill="#F09B90" transform="translate(377,305)"/>
<path d="M0 0 C1.7074998 1.28062485 3.37373596 2.61767557 5 4 C5 4.66 5 5.32 5 6 C5.66 6 6.32 6 7 6 C7.33 7.32 7.66 8.64 8 10 C4.15654191 8.54213659 2.84920065 6.61034412 1 3 C0.67 2.01 0.34 1.02 0 0 Z " fill="#F5C7C1" transform="translate(357,141)"/>
<path d="M0 0 C3.94139078 1.66751148 6.7892812 4.22710649 10 7 C9.67 7.66 9.34 8.32 9 9 C4.44984107 7.48328036 2.49942736 3.83108947 0 0 Z " fill="#F9CAC5" transform="translate(337,123)"/>
<path d="M0 0 C0.66 0.33 1.32 0.66 2 1 C1 4 1 4 -1.4375 5.75 C-2.7059375 6.36875 -2.7059375 6.36875 -4 7 C-4.66 6.67 -5.32 6.34 -6 6 C-4 4 -2 2 0 0 Z " fill="#F2B0A8" transform="translate(309,319)"/>
<path d="M0 0 C7.38461538 0.49230769 7.38461538 0.49230769 10.5 3.0625 C10.995 3.701875 11.49 4.34125 12 5 C7.89100419 3.87204037 3.92438786 2.66489182 0 1 C0 0.67 0 0.34 0 0 Z " fill="#F2B1A6" transform="translate(190,323)"/>
<path d="M0 0 C2.55934601 1.279673 2.6989233 2.24201036 3.6875 4.875 C3.95949219 5.57367188 4.23148437 6.27234375 4.51171875 6.9921875 C5 9 5 9 4 12 C0.46209597 8.30827405 0.40884117 4.90609405 0 0 Z " fill="#F8CCC6" transform="translate(383,180)"/>
<path d="M0 0 C0.99 0.99 1.98 1.98 3 3 C2.67 3.99 2.34 4.98 2 6 C0.68 5.67 -0.64 5.34 -2 5 C-2 4.01 -2 3.02 -2 2 C-1.34 2 -0.68 2 0 2 C0 1.34 0 0.68 0 0 Z " fill="#F2816D" transform="translate(358,144)"/>
<path d="M0 0 C0 0.99 0 1.98 0 3 C-3.3 3.66 -6.6 4.32 -10 5 C-6.61935275 1.61935275 -4.79417227 0 0 0 Z " fill="#F9C0BB" transform="translate(191,106)"/>
<path d="M0 0 C7.50769231 -0.36923077 7.50769231 -0.36923077 10 1.5 C10.495 2.2425 10.495 2.2425 11 3 C9.741875 2.87625 8.48375 2.7525 7.1875 2.625 C6.12595703 2.52058594 6.12595703 2.52058594 5.04296875 2.4140625 C3 2 3 2 0 0 Z " fill="#F5C2B9" transform="translate(205,378)"/>
<path d="M0 0 C-0.33 1.65 -0.66 3.3 -1 5 C-2.98 5 -4.96 5 -7 5 C-2.25 0 -2.25 0 0 0 Z " fill="#ED8D82" transform="translate(181,111)"/>
<path d="M0 0 C3.73639216 1.24546405 4.18756513 2.63404953 6 6 C5.01 6.495 5.01 6.495 4 7 C3.34 6.34 2.68 5.68 2 5 C1.34 4.67 0.68 4.34 0 4 C0 2.68 0 1.36 0 0 Z " fill="#F4B6B1" transform="translate(172,303)"/>
<path d="M0 0 C1.485 0.99 1.485 0.99 3 2 C3.40843923 4.71203652 3.13336867 7.2437142 3 10 C1.11608215 6.73454239 0.50712033 3.71888239 0 0 Z " fill="#F5B7AC" transform="translate(345,205)"/>
<path d="M0 0 C1.32 1.65 2.64 3.3 4 5 C1.625 4.6875 1.625 4.6875 -1 4 C-1.66 3.01 -2.32 2.02 -3 1 C-2.01 0.67 -1.02 0.34 0 0 Z " fill="#F4ACA4" transform="translate(308,154)"/>
<path d="M0 0 C0.33 0.66 0.66 1.32 1 2 C0.01 3.32 -0.98 4.64 -2 6 C-3.32 5.67 -4.64 5.34 -6 5 C-4.02 3.35 -2.04 1.7 0 0 Z " fill="#F2B6AE" transform="translate(153,130)"/>
<path d="M0 0 C2 1 2 1 2 1 Z " fill="#FFFFFF" transform="translate(151,1)"/>
<path d="" fill="#FFFFFF" transform="translate(0,0)"/>
<path d="" fill="#FFFFFF" transform="translate(0,0)"/>
<path d="" fill="#FFFFFF" transform="translate(0,0)"/>
<path d="" fill="#FFFFFF" transform="translate(0,0)"/>
<path d="" fill="#FFFFFF" transform="translate(0,0)"/>
<path d="" fill="#FFFFFF" transform="translate(0,0)"/>
<path d="" fill="#FFFFFF" transform="translate(0,0)"/>
<path d="" fill="#FFFFFF" transform="translate(0,0)"/>
<path d="" fill="#FFFFFF" transform="translate(0,0)"/>
<path d="" fill="#FFFFFF" transform="translate(0,0)"/>
<path d="" fill="#FFFFFF" transform="translate(0,0)"/>
<path d="" fill="#FFFFFF" transform="translate(0,0)"/>
<path d="" fill="#FFFFFF" transform="translate(0,0)"/>
<path d="" fill="#FFFFFF" transform="translate(0,0)"/>
<path d="" fill="#FFFFFF" transform="translate(0,0)"/>
<path d="" fill="#FFFFFF" transform="translate(0,0)"/>
<path d="" fill="#FFFFFF" transform="translate(0,0)"/>
<path d="" fill="#FFFFFF" transform="translate(0,0)"/>
<path d="" fill="#FFFFFF" transform="translate(0,0)"/>
<path d="" fill="#FFFFFF" transform="translate(0,0)"/>
<path d="" fill="#FFFFFF" transform="translate(0,0)"/>
<path d="" fill="#FFFFFF" transform="translate(0,0)"/>
<path d="" fill="#FFFFFF" transform="translate(0,0)"/>
<path d="" fill="#FFFFFF" transform="translate(0,0)"/>
<path d="" fill="#FFFFFF" transform="translate(0,0)"/>
<path d="" fill="#FFFFFF" transform="translate(0,0)"/>
<path d="" fill="#FFFFFF" transform="translate(0,0)"/>
<path d="" fill="#FFFFFF" transform="translate(0,0)"/>
<path d="" fill="#FFFFFF" transform="translate(0,0)"/>
<path d="" fill="#FFFFFF" transform="translate(0,0)"/>
<path d="" fill="#FFFFFF" transform="translate(0,0)"/>
<path d="" fill="#FFFFFF" transform="translate(0,0)"/>
<path d="" fill="#FFFFFF" transform="translate(0,0)"/>
<path d="" fill="#FFFFFF" transform="translate(0,0)"/>
<path d="" fill="#FFFFFF" transform="translate(0,0)"/>
<path d="" fill="#FFFFFF" transform="translate(0,0)"/>
<path d="" fill="#FFFFFF" transform="translate(0,0)"/>
<path d="" fill="#FFFFFF" transform="translate(0,0)"/>
<path d="" fill="#FFFFFF" transform="translate(0,0)"/>
<path d="" fill="#FFFFFF" transform="translate(0,0)"/>
<path d="" fill="#FFFFFF" transform="translate(0,0)"/>
<path d="" fill="#FFFFFF" transform="translate(0,0)"/>
<path d="" fill="#FFFFFF" transform="translate(0,0)"/>
<path d="" fill="#FFFFFF" transform="translate(0,0)"/>
<path d="" fill="#FFFFFF" transform="translate(0,0)"/>
<path d="" fill="#FFFFFF" transform="translate(0,0)"/>
<path d="" fill="#FFFFFF" transform="translate(0,0)"/>
<path d="" fill="#FFFFFF" transform="translate(0,0)"/>
<path d="" fill="#FFFFFF" transform="translate(0,0)"/>
<path d="" fill="#FFFFFF" transform="translate(0,0)"/>
<path d="" fill="#FFFFFF" transform="translate(0,0)"/>
<path d="" fill="#FFFFFF" transform="translate(0,0)"/>
<path d="" fill="#FFFFFF" transform="translate(0,0)"/>
<path d="" fill="#FFFFFF" transform="translate(0,0)"/>
<path d="" fill="#FFFFFF" transform="translate(0,0)"/>
<path d="" fill="#FFFFFF" transform="translate(0,0)"/>
<path d="" fill="#FFFFFF" transform="translate(0,0)"/>
<path d="" fill="#FFFFFF" transform="translate(0,0)"/>
<path d="" fill="#FFFFFF" transform="translate(0,0)"/>
<path d="" fill="#FFFFFF" transform="translate(0,0)"/>
<path d="" fill="#FFFFFF" transform="translate(0,0)"/>
<path d="" fill="#FFFFFF" transform="translate(0,0)"/>
<path d="" fill="#FFFFFF" transform="translate(0,0)"/>
<path d="" fill="#FFFFFF" transform="translate(0,0)"/>
<path d="" fill="#FFFFFF" transform="translate(0,0)"/>
<path d="" fill="#FFFFFF" transform="translate(0,0)"/>
<path d="" fill="#FFFFFF" transform="translate(0,0)"/>
<path d="" fill="#FFFFFF" transform="translate(0,0)"/>
</svg>
